<svg width="220" height="101" viewBox="0 0 220 101" xmlns="http://www.w3.org/2000/svg">
<g id="Group 2">
<g id="g60">
<path id="path62" d="M47.88 64.5157C47.88 76.7824 39.4653 85.1957 27 85.1957H15.2267V43.4357H27C39.4653 43.4357 47.88 52.0491 47.88 64.3157V64.5157ZM27 29.6891H0V98.9424H27C48.7733 98.9424 63.8133 83.8091 63.8133 64.3157V64.1157C63.8133 44.6224 48.7733 29.6891 27 29.6891" />
</g>
<g id="g64">
<path id="path66" d="M82.9464 68.2755C84.133 61.4488 88.1864 56.9955 94.4264 56.9955C100.76 56.9955 104.72 61.5421 105.6 68.2755H82.9464ZM120.253 73.7155C120.253 58.6755 112.133 44.9154 94.4264 44.9154C78.9864 44.9154 68.1997 57.3821 68.1997 72.5288V72.7288C68.1997 88.9555 79.973 100.129 95.9064 100.129C105.506 100.129 112.626 96.3688 117.573 90.2355L108.973 82.6221C104.813 86.4755 101.146 88.0621 96.1064 88.0621C89.373 88.0621 84.6264 84.5021 83.1464 77.6754H120.053C120.146 76.2888 120.253 74.9021 120.253 73.7155" />
</g>
<g id="g144">
<path id="path146" d="M181.086 26.1784C179.181 28.3797 177.294 30.6984 175.48 33.0704C174.386 34.4997 174.658 36.5451 176.086 37.6384C176.677 38.0904 177.374 38.3091 178.064 38.3091C179.045 38.3091 180.013 37.8691 180.654 37.0304C182.39 34.7611 184.193 32.5451 186.013 30.4437C187.19 29.0837 187.044 27.0264 185.682 25.8477C184.325 24.6704 182.265 24.8171 181.086 26.1784Z" />
</g>
<g id="g148">
<path id="path150" d="M219.591 1.43765e-05C209.923 1.97335 197.08 3.06135 187.761 1.55068L198.151 9.73601C196.717 10.8747 195.292 12.0427 193.904 13.256C192.549 14.44 192.409 16.4987 193.595 17.8533C194.237 18.5893 195.141 18.9667 196.049 18.9667C196.809 18.9667 197.573 18.7027 198.191 18.1627C199.271 17.22 200.369 16.2973 201.477 15.4013L204.124 27.864C206.892 18.8373 213.547 7.80135 219.591 1.43765e-05Z" />
</g>
<g id="g152">
<path id="path154" d="M154.377 62.0964C152.25 66.0524 150.198 70.0444 148.209 74.0684C147.28 75.9511 146.37 77.8284 145.474 79.7204C144.053 77.8737 142.625 76.0537 141.188 74.2204L132.125 62.8644C126.048 55.3324 119.938 47.8391 113.794 40.3737C118.753 48.6711 123.674 56.9911 128.548 65.3297L135.785 77.8617C138.146 82.0364 140.55 86.2684 142.649 90.3937L146.357 97.5751L150.302 90.0124C152.284 86.2177 154.441 82.3431 156.621 78.5604C158.808 74.7631 161.057 71.0017 163.37 67.2857C167.98 59.8417 172.852 52.5777 177.954 45.5324L167.964 38.7431C163.138 46.3884 158.612 54.1724 154.377 62.0964Z" />
</g>
</g>
</svg>
